<svg width="1600" height="360" viewBox="0 0 1600 360" xmlns="http://www.w3.org/2000/svg">
  <defs><pattern id="grid" width="48" height="48" patternUnits="userSpaceOnUse"><path d="M48 0H0V48" fill="none" stroke="#168FFF" stroke-opacity=".08"/></pattern></defs>
  <rect x="2" y="2" width="1596" height="356" rx="26" fill="#05070D" stroke="#164A80" stroke-width="3"/><rect x="2" y="2" width="1596" height="356" rx="26" fill="url(#grid)"/>
  <g transform="translate(58 58)"><rect width="232" height="244" rx="24" fill="#081526" stroke="#168FFF" stroke-width="2"/><g transform="translate(35 32)" stroke="#58C8FF" stroke-width="7"><path d="M18 154L71 42L153 82L108 178Z" fill="none"/><circle cx="18" cy="154" r="17" fill="#087BFF"/><circle cx="71" cy="42" r="17" fill="#087BFF"/><circle cx="153" cy="82" r="17" fill="#087BFF"/><circle cx="108" cy="178" r="17" fill="#087BFF"/></g></g>
  <text x="346" y="70" fill="#5EAFFF" font-family="Consolas, monospace" font-size="22" font-weight="700" letter-spacing="3">03 / ALGORITHM LAB</text>
  <text x="346" y="151" fill="#F3F7FF" font-family="Arial, sans-serif" font-size="60" font-weight="900" letter-spacing="-2">GRAPHLAB</text>
  <text x="346" y="211" fill="#A4B6CC" font-family="Arial, sans-serif" font-size="28">Draw a graph and inspect each shortest-path decision.</text>
  <text x="346" y="275" fill="#58C8FF" font-family="Consolas, monospace" font-size="23" font-weight="700">JAVASCRIPT  ·  CYTOSCAPE.JS  ·  CHART.JS</text>
  <rect x="1360" y="72" width="166" height="216" rx="22" fill="#087BFF"/><path d="M1403 180H1483M1454 150L1484 180L1454 210" fill="none" stroke="white" stroke-width="8" stroke-linecap="round" stroke-linejoin="round"/>
</svg>
